<svg xmlns="http://www.w3.org/2000/svg" width="27" height="27" viewBox="0 0 27 27">
    <g fill="none" fill-rule="evenodd">
        <g fill="#FFF" fill-rule="nonzero">
            <g>
                <g>
                    <path d="M14.163 4C15.178 4 16 4.822 16 5.837V14c0 3.314-2.686 6-6 6H6c-3.314 0-6-2.686-6-6V5.837C0 4.822.822 4 1.837 4h12.326zm0 1.134H1.837c-.356 0-.65.265-.697.608l-.006.095V14c0 2.615 2.062 4.748 4.65 4.861l.216.005h4c2.615 0 4.748-2.062 4.861-4.65l.005-.216V5.837c0-.356-.265-.65-.608-.697l-.095-.006z" transform="translate(-331 -764) translate(331 764) translate(6 4)"/>
                    <path d="M8 0c1.905 0 3.462 1.495 3.56 3.376l.005.189v1h-1.13v-1C10.435 2.22 9.345 1.13 8 1.13c-1.291 0-2.347 1.005-2.43 2.275l-.005.16v1h-1.13v-1C4.435 1.596 6.031 0 8 0z" transform="translate(-331 -764) translate(331 764) translate(6 4)"/>
                </g>
            </g>
        </g>
    </g>
</svg>
